PathFileType	4	(X/Y/Z)	D:\TRACE\v60_Jaco2_6-2-23\ArmBodyNoDRS_DMP_1-v60.trc
DataRate	CameraRate	NumFrames	NumMarkers	Units	OrigDataRate	OrigDataStartFrame	OrigNumFrames
100.00	100.00	      28	9	mm	100.00	3322	      5315
Frame#	Time	front left toe			Front right toe			aft left toe			aft right toe			Arm			FL body			FR body			AL Body			AR Body			
		X1	Y1	Z1	X2	Y2	Z2	X3	Y3	Z3	X4	Y4	Z4	X5	Y5	Z5	X6	Y6	Z6	X7	Y7	Z7	X8	Y8	Z8	X9	Y9	Z9	

3322	33.210	-135.10013	19.63615	-309.96417	253.46872	145.05110	-320.58450	-105.38036	133.90622	305.50516	251.05930	17.04457	305.11115	1.15958	1118.59204	-698.64838	-19.18191	576.87030	-453.96091	139.79980	579.09094	-455.37372	-4.77366	569.12897	491.10379	148.84512	558.90417	490.89316	
3323	33.220	-135.16563	19.77977	-309.85818	253.41621	150.08330	-322.85538	-105.70837	138.76981	303.79727	251.12297	17.04474	305.10168	1.28427	1118.65820	-698.94116	-19.55240	576.95331	-454.24734	139.32449	579.37903	-455.87430	-4.00544	568.82379	490.75595	149.64278	558.52899	490.53189	
3324	33.230	-135.23645	19.97290	-309.81003	253.95592	152.74869	-324.30350	-106.49704	141.84973	302.16711	251.14789	16.95076	305.08804	1.46189	1118.65051	-699.38348	-20.03975	577.62354	-454.74710	139.30663	579.46259	-456.08466	-3.48470	568.62158	490.50021	150.09489	558.43799	490.17868	
3325	33.240	-135.13341	20.07300	-309.86435	254.26642	152.77333	-325.47369	-106.95756	142.23203	301.18118	251.20593	16.98110	305.03732	1.28693	1118.50110	-699.89905	-20.25652	577.92065	-455.03705	139.16190	579.68610	-456.49533	-3.03020	568.57709	490.25644	151.06706	558.16571	489.41824	
3326	33.250	-135.14301	20.14911	-309.84109	254.49147	150.89485	-326.64136	-107.17329	140.99846	300.83771	251.33557	16.92270	304.95993	0.78802	1118.52881	-700.06866	-20.08353	577.85834	-454.90262	139.16512	579.92670	-456.77545	-2.19618	568.55902	490.01218	151.58945	558.69104	489.67111	
3327	33.260	-135.13167	20.08618	-309.72885	254.23888	147.27287	-327.31467	-107.04696	138.21176	301.11133	251.30296	16.84188	304.93634	0.16013	1118.73279	-699.90277	-20.14335	577.84021	-455.02747	139.06068	579.95374	-457.11261	-1.30823	568.52814	489.77716	152.58376	558.34747	489.19833	
3328	33.270	-135.11917	20.09412	-309.57196	254.06741	142.87563	-327.96124	-106.22150	134.22932	301.62949	251.38879	16.76271	304.91681	-0.67074	1119.33557	-699.69928	-20.22352	577.74945	-455.13885	139.22066	579.83307	-457.40866	-1.05099	568.65076	489.73883	152.59706	558.61267	488.94724	
3329	33.280	-135.12979	20.13148	-309.53857	254.02000	137.61768	-328.26315	-106.16364	129.66954	301.70557	251.32684	16.70144	304.88925	-1.21203	1119.62097	-699.65955	-20.22935	577.65613	-455.27322	138.53908	579.20850	-456.88651	-0.27990	568.86639	489.66910	153.38277	558.76337	488.81305	
3330	33.290	-135.13052	20.18063	-309.57385	253.21750	131.44858	-329.06317	-106.23785	124.05571	301.77069	251.40814	16.58798	304.83685	-1.54269	1119.62927	-699.68231	-20.34856	577.65210	-455.47635	138.50682	579.35986	-457.48636	0.71026	569.01733	489.58170	154.51364	558.54407	488.12109	
3331	33.300	-135.12930	20.27684	-309.62225	253.14267	124.53693	-329.48584	-106.61478	117.72853	301.26892	251.36540	16.42463	304.81665	-1.75243	1119.18103	-699.90845	-20.41909	577.64081	-455.56619	138.33826	579.41986	-457.64008	1.34047	568.82361	489.56882	154.97055	558.45117	487.86304	
3332	33.310	-135.10204	20.25780	-309.51694	253.20064	116.83150	-330.14529	-107.11217	111.03910	300.66708	251.43449	16.34138	304.77783	-1.79257	1118.65881	-700.29309	-20.57017	577.58545	-455.58981	138.34387	579.23364	-457.83398	2.34788	568.63525	489.11984	155.57024	558.70709	487.37097	
3333	33.320	-135.14294	20.17642	-309.43259	253.23099	109.29755	-331.00375	-107.18184	103.88772	299.98245	251.45224	16.23035	304.76147	-1.55805	1118.46411	-700.58215	-20.76301	577.49384	-455.65903	138.16351	579.12323	-458.06955	3.09567	568.41064	488.94547	156.47794	558.43896	487.92212	
3334	33.330	-135.16563	20.12713	-309.38620	253.32751	101.76555	-332.41055	-107.12440	96.72176	299.12692	251.47815	16.08010	304.68988	-1.25049	1118.25342	-700.85748	-20.76638	577.29279	-455.80972	138.07961	579.02594	-458.43732	3.68684	568.38013	488.88715	156.98364	558.40222	487.54370	
3335	33.340	-135.15913	20.11351	-309.39493	252.92981	93.43236	-333.70932	-105.90923	89.18025	298.33655	251.54126	16.08103	304.66501	-1.07602	1118.25061	-700.97400	-20.80644	577.18311	-455.98190	137.98184	578.97485	-458.76776	4.20274	568.42340	488.78403	157.79066	558.34180	487.30008	
3336	33.350	-135.19254	20.19669	-309.41495	253.03790	85.03853	-334.60736	-105.54237	81.70714	297.65042	251.58321	15.98500	304.59116	-1.14663	1118.35168	-701.09412	-20.79107	577.14600	-456.09476	138.12619	578.85419	-459.16989	5.42238	568.53577	488.50073	158.29300	558.29626	487.05490	
3337	33.360	-135.18011	20.26253	-309.44028	251.83080	76.82631	-335.47165	-104.96242	73.06344	297.46848	251.57127	15.93768	304.53891	-1.44699	1118.57410	-701.34326	-20.81089	577.21606	-456.34103	138.22453	578.78650	-459.43777	5.84386	568.58997	488.34207	159.08687	558.17126	486.67029	
3338	33.370	-135.16014	20.23745	-309.40042	252.14426	68.40089	-335.44119	-105.17832	64.43586	297.61121	251.63113	15.85225	304.51080	-1.64669	1118.68042	-701.53772	-20.94019	577.52844	-456.80981	138.47047	579.04443	-459.96500	6.48844	568.58405	487.93723	159.55788	558.02777	486.29398	
3339	33.380	-135.12836	20.17691	-309.37250	252.67274	60.31091	-335.23230	-106.05041	56.75130	297.88293	251.63065	15.79503	304.49432	-1.46566	1118.63452	-701.66913	-20.88839	577.48590	-457.10004	138.64737	579.04431	-460.28726	6.96471	568.35114	487.57037	161.10823	557.78119	486.01151	
3340	33.390	-135.15709	20.21346	-309.34320	253.40996	52.66625	-334.76288	-106.02818	49.27005	298.40872	251.66521	15.77150	304.45871	-1.33998	1118.55872	-701.84735	-20.69765	577.47589	-457.41199	138.78354	578.93182	-460.81091	7.51695	568.34613	487.25644	161.08356	557.89459	485.51938	
3341	33.400	-135.09343	20.25876	-309.36560	254.02650	45.28854	-334.28772	-105.21092	41.95557	298.50699	251.70903	15.75403	304.45248	-1.11392	1118.54321	-702.39087	-20.51397	577.49677	-457.88785	138.44914	578.54791	-461.04819	8.36682	568.45935	487.09348	161.49429	557.98114	484.98145	
3342	33.410	-135.07021	20.32806	-309.38959	254.46060	38.82621	-333.98206	-105.21381	35.70873	298.77869	251.73523	15.74921	304.41971	-0.73011	1118.53760	-702.97552	-20.27258	577.36194	-458.01688	138.53163	578.63434	-461.53568	8.87800	568.53137	486.49380	162.41730	557.89923	483.74133	
3343	33.420	-135.08369	20.33500	-309.39325	255.13393	32.21637	-333.53818	-103.68414	28.88909	298.89682	251.72485	15.75916	304.40848	-0.90380	1118.42932	-703.60510	-20.21597	577.21246	-458.42084	138.61830	578.56696	-461.87439	9.91914	568.61188	486.17184	162.87552	557.97559	483.28119	
3344	33.430	-135.02805	20.25310	-309.34821	255.36940	25.79375	-333.59018	-103.38396	22.40081	298.78427	251.77718	15.73001	304.42432	-0.77465	1118.27490	-704.04016	-20.10233	577.18628	-458.78766	139.00581	578.79419	-462.81769	10.37936	568.77600	485.62189	163.24153	557.96393	482.84735	
3345	33.440	-134.97227	20.21580	-309.32166	255.89449	21.76514	-334.91293	-103.03923	15.57581	298.69604	251.83472	15.66476	304.42825	-0.48896	1118.34033	-704.66748	-19.85796	577.17480	-459.32217	139.16739	578.88245	-463.47583	10.88787	568.84778	485.24191	164.25395	558.27356	482.93790	
3346	33.450	-134.84093	20.23680	-309.33890	257.24658	19.24408	-334.92984	-103.71931	14.40037	296.52930	251.86903	15.62119	304.40851	-0.31757	1118.32825	-705.28528	-19.92983	577.54114	-460.16803	138.92078	578.85492	-463.68478	11.99247	568.71655	484.48734	164.88536	558.04358	481.68295	
3347	33.460	-134.77359	20.38167	-309.37344	256.87769	18.60915	-335.74658	-104.25545	12.71338	295.95477	251.70892	15.72743	304.36874	-0.67334	1118.56250	-705.99084	-20.00219	578.11078	-460.71225	139.13463	579.27197	-464.11212	12.34397	569.62469	484.06976	165.18828	559.12012	481.40216	
3348	33.470	-134.58409	20.56161	-309.61493	257.05612	19.43265	-335.68677	-104.17133	12.66601	296.94913	251.77278	16.10202	304.11154	-0.99083	1119.09009	-706.56354	-19.85699	578.84625	-460.86758	138.88174	580.04980	-464.97165	13.02148	571.55841	483.37729	167.41859	560.61328	480.27908	
3349	33.480	-135.01770	22.16066	-309.80603	256.19373	19.27550	-335.40637	-103.63976	12.85905	297.33759	252.13686	17.47974	304.27106	-1.37666	1120.10120	-707.82031	-20.00059	579.20349	-461.22513	139.07565	580.61816	-465.72784	14.07821	573.75116	482.94742	167.89589	562.63556	480.57767	
